<?xml version="1.0" encoding="utf-8"?>
<!-- Generator: Adobe Illustrator 15.1.0, SVG Export Plug-In . SVG Version: 6.00 Build 0)  -->
<!DOCTYPE svg PUBLIC "-//W3C//DTD SVG 1.1//EN" "http://www.w3.org/Graphics/SVG/1.1/DTD/svg11.dtd">
<svg version="1.1" id="Ebene_1" xmlns="http://www.w3.org/2000/svg" xmlns:xlink="http://www.w3.org/1999/xlink" x="0px" y="0px"
	 width="1366px" height="937px" viewBox="0 0 1366 937" enable-background="new 0 0 1366 937" xml:space="preserve">
<path d="M956.292,0H409.708C301.914,0,214.5,87.414,214.5,195.208v546.583C214.5,849.586,301.914,937,409.708,937h546.584
	c107.833,0,195.208-87.414,195.208-195.208V195.208C1151.5,87.414,1064.125,0,956.292,0z"/>
<path fill="#FFFFFF" d="M1023.367,647.207c-0.963,3.525-3.897,6.79-8.892,9.769c-4.969,2.954-11.979,4.445-20.979,4.445
	l-91.101,1.422c-5.695,1.203-12.331,0.613-19.907-1.773c-7.6-2.365-13.753-4.971-18.505-7.839l-7.117-4.249
	c-7.117-4.994-15.417-12.593-24.922-22.775c-9.46-10.207-17.586-19.381-24.353-27.571c-6.766-8.188-13.992-15.066-21.7-20.651
	c-7.709-5.563-14.41-7.422-20.105-5.519c-0.723,0.264-1.663,0.657-2.824,1.247c-1.205,0.615-3.24,2.321-6.066,5.17
	c-2.868,2.847-5.386,6.328-7.665,10.489c-2.254,4.161-4.269,10.314-6.043,18.482c-1.773,8.19-2.541,17.389-2.301,27.571
	c0,3.569-0.437,6.834-1.269,9.792c-0.812,2.976-1.71,5.165-2.672,6.587l-1.401,1.775c-4.249,4.49-10.555,7.117-18.832,7.817h-40.931
	c-16.841,0.964-34.163-1.005-51.946-5.867c-17.804-4.861-33.396-11.146-46.798-18.834c-13.402-7.729-25.6-15.549-36.638-23.498
	c-11.038-7.927-19.402-14.76-25.097-20.452l-8.892-8.542c-2.364-2.388-5.628-5.912-9.789-10.665
	c-4.138-4.752-12.613-15.547-25.425-32.391c-12.811-16.839-25.382-34.729-37.731-53.718c-12.307-18.988-26.85-43.995-43.558-75.071
	c-16.732-31.074-32.192-63.332-46.448-96.774c-1.425-3.786-2.125-6.984-2.125-9.612c0-2.605,0.373-4.488,1.074-5.695l1.422-2.146
	c3.568-4.488,10.315-6.744,20.279-6.744l97.473-0.701c2.87,0.461,5.585,1.228,8.191,2.3c2.607,1.095,4.512,2.08,5.694,3.022
	l1.772,1.071c3.79,2.63,6.657,6.418,8.564,11.389c4.73,11.87,10.183,24.134,16.336,36.813c6.177,12.724,11.037,22.381,14.583,29.016
	l5.695,10.314c6.899,14.234,13.533,26.565,19.929,36.988c6.416,10.446,12.176,18.571,17.256,24.374
	c5.104,5.825,10.031,10.38,14.762,13.707c4.752,3.33,8.802,4.996,12.089,4.996c3.328,0,6.525-0.591,9.634-1.798
	c0.461-0.239,1.051-0.832,1.752-1.771c0.725-0.943,2.17-3.549,4.293-7.82c2.124-4.291,3.723-9.853,4.795-16.729
	c1.074-6.877,2.191-16.489,3.374-28.82c1.203-12.328,1.203-27.156,0-44.478c-0.46-9.481-1.532-18.134-3.197-25.972
	c-1.644-7.818-3.308-13.271-4.972-16.359l-2.123-4.271c-5.958-8.059-16.031-13.161-30.267-15.285
	c-3.065-0.481-2.473-3.329,1.796-8.563c4.029-4.49,8.521-8.06,13.512-10.666c12.593-6.153,40.93-9.021,85.036-8.541
	c19.446,0.263,35.453,1.796,48.046,4.622c4.729,1.204,8.693,2.803,11.892,4.817c3.197,2.015,5.628,4.861,7.291,8.54
	c1.666,3.68,2.914,7.47,3.745,11.388c0.832,3.92,1.25,9.309,1.25,16.185c0,6.877-0.132,13.403-0.375,19.577
	c-0.22,6.154-0.523,14.52-0.875,25.075c-0.349,10.534-0.525,20.324-0.525,29.344c0,2.607-0.132,7.602-0.351,14.96
	c-0.239,7.335-0.305,13.051-0.197,17.079c0.132,4.029,0.548,8.826,1.248,14.388c0.7,5.586,2.082,10.206,4.094,13.885
	c2.017,3.68,4.667,6.594,7.996,8.716c1.905,0.461,3.942,0.943,6.064,1.424c2.126,0.483,5.191-0.831,9.266-3.922
	c4.029-3.063,8.517-7.159,13.512-12.262c4.971-5.08,11.122-13.053,18.48-23.827c7.358-10.796,15.419-23.54,24.2-38.257
	c14.234-24.66,26.914-51.354,38.083-80.043c0.941-2.364,2.124-4.468,3.547-6.239c1.426-1.775,2.716-3.023,3.919-3.725l1.404-1.051
	l1.773-0.919c0,0,1.554-0.35,4.642-1.051c3.065-0.725,5.452-0.767,7.097-0.198l102.486-0.699c9.242-1.206,16.842-0.899,22.776,0.897
	c5.912,1.772,9.592,3.722,11.017,5.846l2.102,3.549c5.476,15.176-12.307,50.062-53.368,104.612
	c-5.673,7.599-13.38,17.672-23.103,30.243c-18.507,23.738-29.173,39.243-32.02,46.602c-4.028,9.723-2.386,19.337,4.973,28.842
	c4.029,4.973,13.643,14.693,28.843,29.171h0.326l0.373,0.351l0.35,0.35l0.702,0.722c33.438,31.076,56.104,57.266,67.976,78.619
	c0.722,1.182,1.487,2.673,2.319,4.445c0.812,1.773,1.643,4.929,2.497,9.438C1024.376,639.608,1024.331,643.638,1023.367,647.207z"/>
</svg>
